<svg width="26" height="29" viewBox="0 0 26 29" fill="none" xmlns="http://www.w3.org/2000/svg">
<g id="fa6-brands:bluetooth" clip-path="url(#clip0_2_72)">
<path id="Vector" d="M16.5028 9.65015L14.0832 12.0697L14.0663 7.21928L16.5028 9.65015V9.65015ZM14.0663 22.047L16.4972 19.6161L14.0776 17.1965L14.0663 22.047V22.047ZM23.4626 14.6303C23.4626 26.2263 19.4074 28.8771 13.0229 28.8771C6.63834 28.8771 1.80481 26.2263 1.80481 14.6303C1.80481 3.03435 6.50862 0 12.8932 0C19.2777 0 23.4626 3.03999 23.4626 14.6303ZM14.5232 14.6303L19.0014 9.63323L11.9456 2.05862V12.0359L7.78328 7.87353L6.26046 9.3907L11.4888 14.636L6.26046 19.8812L7.77764 21.3984L11.94 17.236L12.0697 26.8241L19.2552 19.6331L14.5232 14.6303Z" fill="#757272"/>
</g>
<defs>
<clipPath id="clip0_2_72">
<rect width="25.2675" height="28.8771" fill="white"/>
</clipPath>
</defs>
</svg>
