<svg width="51" height="27" viewBox="0 0 51 27" fill="none" xmlns="http://www.w3.org/2000/svg">
<g id="Group 10">
<path id="Ellipse 13 (Stroke)" fill-rule="evenodd" clip-rule="evenodd" d="M46.1664 12.8567C43.8438 10.2504 41.0481 8.09458 37.9183 6.50868C33.8923 4.46865 29.4328 3.4321 24.9197 3.48733C20.4067 3.54256 15.9739 4.68793 11.999 6.82587C8.909 8.48789 6.16688 10.7115 3.90877 13.3738L17.5205 22.608C18.1808 22.0321 18.9056 21.5297 19.6828 21.1116C21.3549 20.2123 23.2197 19.7304 25.1182 19.7072C27.0168 19.684 28.8928 20.12 30.5864 20.9782C31.3736 21.3771 32.1105 21.8616 32.7847 22.4212L46.1664 12.8567ZM49.8881 12.6551C50.2236 13.0938 50.1184 13.7195 49.669 14.0406L33.2181 25.7989C32.7687 26.1201 32.1481 26.0116 31.778 25.6017C31.0574 24.8037 30.1945 24.1428 29.2304 23.6543C27.9681 23.0147 26.5699 22.6897 25.1549 22.707C23.74 22.7243 22.3501 23.0834 21.1039 23.7537C20.1521 24.2657 19.3055 24.9476 18.6047 25.7629C18.2447 26.1817 17.6269 26.3054 17.1699 25.9953L0.4361 14.6431C-0.0209391 14.3331 -0.141406 13.7102 0.183227 13.2634C2.91927 9.49765 6.47106 6.39275 10.578 4.18379C14.9787 1.81679 19.8865 0.548697 24.883 0.487551C29.8796 0.426405 34.8169 1.57402 39.2743 3.83262C43.434 5.94041 47.0607 8.95746 49.8881 12.6551Z" fill="#F1F1F2"/>
<circle id="Ellipse 14" cx="24.7624" cy="7.98523" r="1.5" fill="#F1F1F2"/>
<rect id="Rectangle 25" x="23.2624" y="11.4852" width="3" height="7" fill="#F1F1F2"/>
</g>
</svg>
