<svg width="30" height="34" viewBox="0 0 30 34" fill="none" xmlns="http://www.w3.org/2000/svg">
<path id="Shape" fill-rule="evenodd" clip-rule="evenodd" d="M12.5731 0C10.4255 0 8.38688 1.16993 7.15881 3.21974C5.95496 5.2291 4.20977 8.23453 2.75966 11.1032C2.03585 12.5351 1.3682 13.9668 0.876633 15.2431C0.416062 16.439 0 17.7674 0 18.8889V30.2222C0 32.3086 1.49238 34 3.33333 34H26.6667C28.5076 34 30 32.3086 30 30.2222V3.77778C30 1.69137 28.5076 0 26.6667 0H12.5731ZM9.91651 5.34188C10.5026 4.36363 11.4911 3.77778 12.5731 3.77778H26.6667V7.55556H14.3452C13.709 7.55556 13.1125 7.85549 12.7519 8.3796C11.576 10.0885 8.97292 14.1006 8.33334 17L3.83886 17C3.86823 16.9206 3.89913 16.8388 3.93162 16.7544C4.35489 15.6554 4.95681 14.3563 5.65197 12.9811C7.03978 10.2357 8.73009 7.32216 9.91651 5.34188ZM3.33333 20.7778L15.9763 20.7778L12.1548 25.1088C11.5039 25.8465 11.5039 27.0424 12.1548 27.7801C12.8057 28.5177 13.861 28.5177 14.5118 27.7801L18.3333 23.4491L22.1548 27.7801C22.8057 28.5177 23.861 28.5177 24.5118 27.7801C25.1627 27.0424 25.1627 25.8465 24.5118 25.1088L20.6903 20.7778L26.6667 20.7778V30.2222H3.33333V20.7778ZM20.6903 20.7778H15.9763L12.1548 16.4468C11.5039 15.7091 11.5039 14.5131 12.1548 13.7755C12.8057 13.0378 13.861 13.0378 14.5118 13.7755L18.3333 18.1065L22.1548 13.7755C22.8057 13.0378 23.861 13.0378 24.5118 13.7755C25.1627 14.5131 25.1627 15.7091 24.5118 16.4468L20.6903 20.7778Z" fill="#757272"/>
</svg>
