<svg width="43" height="43" viewBox="0 0 43 43" fill="none" xmlns="http://www.w3.org/2000/svg">
<g id="ph:headlights">
<path id="Vector" d="M16.125 29.5625C16.125 29.9189 15.9834 30.2607 15.7314 30.5127C15.4794 30.7647 15.1376 30.9062 14.7813 30.9062H2.6875C2.33112 30.9062 1.98933 30.7647 1.73732 30.5127C1.48532 30.2607 1.34375 29.9189 1.34375 29.5625C1.34375 29.2061 1.48532 28.8643 1.73732 28.6123C1.98933 28.3603 2.33112 28.2187 2.6875 28.2187H14.7813C15.1376 28.2187 15.4794 28.3603 15.7314 28.6123C15.9834 28.8643 16.125 29.2061 16.125 29.5625ZM2.6875 14.7812H14.7813C15.1376 14.7812 15.4794 14.6397 15.7314 14.3877C15.9834 14.1357 16.125 13.7939 16.125 13.4375C16.125 13.0811 15.9834 12.7393 15.7314 12.4873C15.4794 12.2353 15.1376 12.0937 14.7813 12.0937H2.6875C2.33112 12.0937 1.98933 12.2353 1.73732 12.4873C1.48532 12.7393 1.34375 13.0811 1.34375 13.4375C1.34375 13.7939 1.48532 14.1357 1.73732 14.3877C1.98933 14.6397 2.33112 14.7812 2.6875 14.7812ZM2.6875 25.5312L14.7813 25.5312C15.1376 25.5312 15.4794 25.3897 15.7314 25.1377C15.9834 24.8857 16.125 24.5439 16.125 24.1875C16.125 23.8311 15.9834 23.4893 15.7314 23.2373C15.4794 22.9853 15.1376 22.8437 14.7813 22.8437L2.6875 22.8437C2.33112 22.8437 1.98933 22.9853 1.73732 23.2373C1.48532 23.4893 1.34375 23.8311 1.34375 24.1875C1.34375 24.5439 1.48532 24.8857 1.73732 25.1377C1.98933 25.3897 2.33112 25.5312 2.6875 25.5312ZM2.6875 20.1562L14.7813 20.1562C15.1376 20.1562 15.4794 20.0147 15.7314 19.7627C15.9834 19.5107 16.125 19.1689 16.125 18.8125C16.125 18.4561 15.9834 18.1143 15.7314 17.8623C15.4794 17.6103 15.1376 17.4687 14.7813 17.4687H2.6875C2.33112 17.4687 1.98933 17.6103 1.73732 17.8623C1.48532 18.1143 1.34375 18.4561 1.34375 18.8125C1.34375 19.1689 1.48532 19.5107 1.73732 19.7627C1.98933 20.0147 2.33112 20.1562 2.6875 20.1562ZM18.8125 32.25L18.8125 10.75C18.8125 10.0372 19.0956 9.35365 19.5997 8.84965C20.1037 8.34564 20.7872 8.0625 21.5 8.0625L28.2188 8.0625C29.9925 8.06021 31.7492 8.40957 33.3871 9.09037C35.025 9.77117 36.5118 10.7699 37.7613 12.0288C39.0109 13.2878 39.9985 14.7819 40.667 16.4249C41.3356 18.0679 41.6718 19.8271 41.6563 21.6008C41.6059 28.9578 35.5086 34.9375 28.0676 34.9375H21.5C20.7872 34.9375 20.1037 34.6544 19.5997 34.1503C19.0956 33.6463 18.8125 32.9628 18.8125 32.25ZM21.5 32.25H28.0676C34.0305 32.25 38.9184 27.4629 38.9688 21.584C38.9798 20.1652 38.71 18.7583 38.1747 17.4443C37.6394 16.1304 36.8493 14.9354 35.85 13.9282C34.8507 12.9211 33.6618 12.1217 32.3521 11.5763C31.0423 11.0308 29.6376 10.75 28.2188 10.75L21.5 10.75L21.5 32.25Z" fill="#757272"/>
</g>
</svg>
