<svg width="30" height="34" viewBox="0 0 30 34" fill="none" xmlns="http://www.w3.org/2000/svg">
<path id="Vector" d="M14.913 0C15.836 0 16.7212 0.358213 17.3739 0.995837C18.0266 1.63346 18.3933 2.49826 18.3933 3.4C18.3933 5.287 16.8445 6.8 14.913 6.8C13.99 6.8 13.1047 6.44179 12.4521 5.80416C11.7994 5.16654 11.4327 4.30174 11.4327 3.4C11.4327 2.49826 11.7994 1.63346 12.4521 0.995837C13.1047 0.358213 13.99 0 14.913 0ZM15.5916 21.743C18.0635 21.7336 20.5335 21.8755 22.9872 22.168C23.0916 17.544 22.674 13.464 21.8735 11.9C21.6473 11.441 21.3341 11.05 21.0035 10.71L6.96056 22.474C9.32715 22.1 12.3028 21.743 15.5916 21.743M7.01276 25.5C7.23898 28.458 7.69142 31.45 8.42227 34H12.0244C11.5197 32.504 11.1543 30.753 10.8759 28.9C10.8759 28.9 14.913 28.152 18.9501 28.9C18.6717 30.753 18.3063 32.504 17.8016 34H21.4037C22.1694 31.365 22.6218 28.237 22.848 25.143C20.4402 24.8586 18.017 24.7167 15.5916 24.718C12.2332 24.718 9.30974 25.075 7.01276 25.5M14.913 8.5C14.913 8.5 9.69258 8.5 7.95244 11.9C7.36079 13.056 6.97796 15.555 6.85615 18.632L18.2541 9.078C16.5313 8.5 14.913 8.5 14.913 8.5ZM26.3457 6.239L24.3619 3.978L18.2541 9.095C19.2111 9.418 20.2204 9.928 21.0035 10.71L26.3457 6.239M30 23.511C29.8434 23.46 27.3376 22.661 22.9872 22.168C22.9698 23.137 22.9176 24.14 22.848 25.143C26.7633 25.619 29.0081 26.35 29.0429 26.35L30 23.511M6.85615 18.632L0 24.378L1.54872 26.894C1.58353 26.877 3.60209 26.112 7.01276 25.5C6.82135 23.103 6.76914 20.74 6.85615 18.632Z" fill="#757272"/>
</svg>
