<svg width="42" height="42" viewBox="0 0 42 42" fill="none" xmlns="http://www.w3.org/2000/svg">
<g id="ic:baseline-ac-unit">
<path id="Vector" d="M38.5 19.25H31.2025L36.8725 13.58L34.405 11.095L26.25 19.25H22.75V15.75L30.905 7.595L28.42 5.1275L22.75 10.7975V3.5H19.25V10.7975L13.58 5.1275L11.095 7.595L19.25 15.75V19.25H15.75L7.595 11.095L5.1275 13.58L10.7975 19.25H3.5V22.75H10.7975L5.1275 28.42L7.595 30.905L15.75 22.75H19.25V26.25L11.095 34.405L13.58 36.8725L19.25 31.2025V38.5H22.75V31.2025L28.42 36.8725L30.905 34.405L22.75 26.25V22.75H26.25L34.405 30.905L36.8725 28.42L31.2025 22.75H38.5V19.25Z" fill="#F1F1F2"/>
</g>
</svg>
