<svg width="36" height="34" viewBox="0 0 36 34" fill="none" xmlns="http://www.w3.org/2000/svg">
<path id="Vector" d="M9.34442 24.9606C9.48468 25.0076 9.61436 25.082 9.72602 25.1795C9.83769 25.277 9.92916 25.3957 9.9952 25.5288C10.0612 25.6619 10.1006 25.8068 10.1109 25.9552C10.1213 26.1035 10.1024 26.2525 10.0555 26.3936L8.93037 29.7893C8.82793 30.0633 8.62394 30.2868 8.36122 30.4127C8.09851 30.5386 7.79751 30.5573 7.52143 30.4647C7.24535 30.3721 7.01567 30.1755 6.88061 29.9162C6.74554 29.6569 6.71561 29.355 6.7971 29.0739L7.92224 25.6782C8.01626 25.3933 8.21891 25.1577 8.48561 25.0231C8.75231 24.8885 9.06123 24.8661 9.34442 24.9606ZM22.8461 24.9606C22.9864 25.0076 23.1161 25.082 23.2277 25.1795C23.3394 25.277 23.4309 25.3957 23.4969 25.5288C23.5629 25.6619 23.6023 25.8068 23.6126 25.9552C23.623 26.1035 23.6041 26.2525 23.5572 26.3936L22.4321 29.7893C22.3296 30.0633 22.1256 30.2868 21.8629 30.4127C21.6002 30.5386 21.2992 30.5573 21.0231 30.4647C20.7471 30.3721 20.5174 30.1755 20.3823 29.9162C20.2472 29.6569 20.2173 29.355 20.2988 29.0739L21.4239 25.6782C21.518 25.3933 21.7206 25.1577 21.9873 25.0231C22.254 24.8885 22.5629 24.8661 22.8461 24.9606ZM14.9701 28.3563C15.1104 28.4034 15.2401 28.4778 15.3517 28.5753C15.4634 28.6728 15.5549 28.7914 15.6209 28.9245C15.6869 29.0576 15.7263 29.2025 15.7366 29.3509C15.747 29.4993 15.7281 29.6482 15.6812 29.7893L14.5561 33.185C14.4536 33.4591 14.2496 33.6825 13.9869 33.8084C13.7242 33.9344 13.4232 33.953 13.1471 33.8604C12.8711 33.7678 12.6414 33.5712 12.5063 33.3119C12.3713 33.0526 12.3413 32.7507 12.4228 32.4697L13.5479 29.0739C13.642 28.7891 13.8446 28.5534 14.1113 28.4188C14.378 28.2843 14.6869 28.2618 14.9701 28.3563ZM28.4718 28.3563C28.6121 28.4034 28.7418 28.4778 28.8534 28.5753C28.9651 28.6728 29.0566 28.7914 29.1226 28.9245C29.1886 29.0576 29.228 29.2025 29.2383 29.3509C29.2487 29.4993 29.2298 29.6482 29.1829 29.7893L28.0578 33.185C28.0154 33.3312 27.9441 33.4673 27.8483 33.5851C27.7524 33.7029 27.6339 33.8 27.4998 33.8707C27.3658 33.9414 27.2189 33.9841 27.068 33.9963C26.9172 34.0086 26.7654 33.9901 26.6218 33.9419C26.4783 33.8938 26.3458 33.817 26.2324 33.7161C26.119 33.6153 26.027 33.4924 25.9619 33.355C25.8968 33.2175 25.8599 33.0683 25.8535 32.9162C25.8471 32.764 25.8712 32.6122 25.9245 32.4697L27.0496 29.0739C27.1437 28.7891 27.3463 28.5534 27.613 28.4188C27.8797 28.2843 28.1886 28.2618 28.4718 28.3563ZM30.1528 9.11842C29.6855 6.74857 28.4768 4.59126 26.7036 2.96192C24.9303 1.33259 22.6854 0.316674 20.2971 0.0627255C17.9088 -0.191223 15.5024 0.330113 13.4297 1.55051C11.357 2.7709 9.72679 4.62634 8.77735 6.84555C7.7126 6.72215 6.63402 6.81868 5.60764 7.12922C4.58126 7.43976 3.62869 7.95778 2.80824 8.65156C1.98779 9.34535 1.31673 10.2003 0.836144 11.1641C0.35556 12.1278 0.0755652 13.1801 0.0133017 14.2565C-0.0489618 15.333 0.107817 16.4108 0.474038 17.4242C0.84026 18.4375 1.40822 19.365 2.14314 20.1498C2.87806 20.9347 3.76448 21.5603 4.74812 21.9886C5.73177 22.4168 6.79194 22.6385 7.86373 22.6402H29.2414C30.9541 22.6421 32.6036 21.9891 33.8556 20.8134C35.1076 19.6377 35.8687 18.0272 35.9845 16.3082C36.1004 14.5891 35.5624 12.89 34.4796 11.555C33.3968 10.2201 31.8501 9.34905 30.1528 9.11842V9.11842ZM19.1151 2.26585C21.3293 2.26539 23.466 3.08596 25.1166 4.57067C26.7672 6.05538 27.8159 8.10004 28.0623 10.3137C28.0929 10.5918 28.2248 10.8487 28.4326 11.0348C28.6403 11.2208 28.9093 11.3228 29.1874 11.3211H29.2414C30.435 11.3211 31.5798 11.7981 32.4238 12.6472C33.2678 13.4963 33.742 14.6479 33.742 15.8487C33.742 17.0495 33.2678 18.2012 32.4238 19.0503C31.5798 19.8993 30.435 20.3764 29.2414 20.3764H7.86373C7.0673 20.376 6.28002 20.2054 5.55399 19.8761C4.82796 19.5467 4.17971 19.066 3.65213 18.4658C3.12456 17.8656 2.72968 17.1595 2.49362 16.3943C2.25755 15.6291 2.18569 14.8222 2.28278 14.0269C2.37986 13.2317 2.64369 12.4662 3.0568 11.7812C3.46991 11.0962 4.02289 10.5072 4.67917 10.0533C5.33544 9.59935 6.08004 9.29076 6.86372 9.14793C7.6474 9.00511 8.45229 9.03132 9.22515 9.22481C9.50088 9.294 9.79241 9.25566 10.0412 9.11751C10.29 8.97935 10.4776 8.7516 10.5663 8.48002C11.161 6.67163 12.3072 5.09781 13.8419 3.98223C15.3766 2.86665 17.2217 2.26607 19.1151 2.26585V2.26585Z" fill="#CBCBCB"/>
</svg>
